<?xml version="1.0" encoding="iso-8859-1"?>
<!-- Generator: Adobe Illustrator 16.0.0, SVG Export Plug-In . SVG Version: 6.00 Build 0)  -->
<!DOCTYPE svg PUBLIC "-//W3C//DTD SVG 1.1//EN" "http://www.w3.org/Graphics/SVG/1.1/DTD/svg11.dtd">
<svg version="1.1" id="Capa_1" xmlns="http://www.w3.org/2000/svg" xmlns:xlink="http://www.w3.org/1999/xlink" x="0px" y="0px"
	 width="130.941px" height="130.941px" viewBox="0 0 130.941 130.941" style="enable-background:new 0 0 130.941 130.941;"
	 xml:space="preserve">
	 <style>
	 	.blue{
			 fill: #5aa2f0;
		 }
	 </style>
<g>
	<g class="blue">
		<path d="M80.472,124.706H24.354c-8.592,0-15.588-6.996-15.588-15.588V40.529c0-8.592,6.997-15.588,15.588-15.588h56.118
			c7.521,0,13.822,5.355,15.271,12.453c2.021-0.566,4.056-1.017,6.102-1.267C99.799,26.202,91,18.706,80.472,18.706H47.389
			c1.446-7.109,7.743-12.47,15.269-12.47h30.279c8.592,0,15.588,6.997,15.588,15.588v14.084c2.101,0.095,4.184,0.362,6.235,0.779
			V21.824C114.76,9.789,104.975,0,92.937,0H62.658c-10.96,0-19.976,8.163-21.504,18.706h-16.8c-12.032,0-21.824,9.789-21.824,21.824
			v68.588c0,12.032,9.792,21.823,21.824,21.823h56.118c9.463,0,17.451-6.089,20.472-14.51c-2.064-0.299-4.08-0.768-6.077-1.377
			C92.528,120.711,86.963,124.706,80.472,124.706z"/>
		<rect x="21.236" y="41.309" width="41.504" height="4.676"/>
		<rect x="21.236" y="62.091" width="31.956" height="4.676"/>
		<rect x="21.236" y="82.879" width="31.956" height="4.677"/>
		<rect x="21.236" y="103.662" width="41.504" height="4.677"/>
		<path d="M83.997,60.383v6.306h6.887v-6.306c0-6.455,5.249-11.697,11.704-11.697c6.441,0,11.69,5.242,11.69,11.697v6.306h6.887
			v-6.306c0-10.251-8.336-18.587-18.577-18.587C92.333,41.796,83.997,50.132,83.997,60.383z"/>
		<path d="M124.971,68.417H80.186c-1.888,0-3.44,1.547-3.44,3.435v34.44c0,1.899,1.553,3.446,3.44,3.446h44.785
			c1.888,0,3.44-1.547,3.44-3.446v-34.44C128.411,69.958,126.858,68.417,124.971,68.417z"/>
	</g>
</g>
</svg>
